<svg width="85" height="63" viewBox="0 0 85 63" fill="none" xmlns="http://www.w3.org/2000/svg">
    <g id="lock">
        <rect x="31.5" y="23" width="22" height="28" rx="3" fill="#81C784"/>
        <path d="M31.5 30C31.5 27.2386 33.2386 25.5 36 25.5C38.7614 25.5 40.5 27.2386 40.5 30C40.5 32.7614 38.7614 34.5 36 34.5C33.2386 34.5 31.5 32.7614 31.5 30Z" fill="white"/>
        <path d="M40.5 38.5H31.5V40.5H40.5V38.5Z" fill="white"/>
    </g>
    <g id="logo">
        <path d="M27.017 30.3135C27.0057 30.5602 27 30.8085 27 31.0581C27 39.9267 34.1894 47.1161 43.0581 47.1161C51.9267 47.1161 59.1161 39.9267 59.1161 31.0581C59.1161 30.8026 59.1102 30.5485 59.0984 30.2959C60.699 30.0511 62.2954 29.7696 63.8864 29.4515L64.0532 29.4181C64.0949 29.9593 64.1161 30.5062 64.1161 31.0581C64.1161 42.6881 54.6881 52.1161 43.0581 52.1161C31.428 52.1161 22 42.6881 22 31.0581C22 30.514 22.0206 29.9747 22.0612 29.441L22.1136 29.4515C23.7428 29.7773 25.3777 30.0646 27.017 30.3135ZM52.4613 18.0397C49.8183 16.1273 46.5698 15 43.0581 15C39.54 15 36.2862 16.1313 33.6406 18.05C31.4938 17.834 29.3526 17.5435 27.221 17.1786C31.0806 12.7781 36.7449 10 43.0581 10C49.3629 10 55.0207 12.7708 58.8799 17.1612C56.7487 17.5285 54.6078 17.8214 52.4613 18.0397ZM68.9854 28.4316C69.0719 29.2954 69.1161 30.1716 69.1161 31.0581C69.1161 45.4495 57.4495 57.1161 43.0581 57.1161C28.6666 57.1161 17 45.4495 17 31.0581C17 30.1793 17.0435 29.3108 17.1284 28.4544L12.2051 27.4697C12.0696 28.6471 12 29.8444 12 31.0581C12 48.211 25.9052 62.1161 43.0581 62.1161C60.211 62.1161 74.1161 48.211 74.1161 31.0581C74.1161 29.8366 74.0456 28.6317 73.9085 27.447L68.9854 28.4316ZM69.6705 15.0372L64.3929 16.0927C59.6785 9.38418 51.8803 5 43.0581 5C34.2269 5 26.4218 9.39306 21.7089 16.1131L16.4331 15.0579C21.867 6.03506 31.7578 0 43.0581 0C54.3497 0 64.234 6.02581 69.6705 15.0372Z" fill="#ffffffde"/>
    </g>
</svg>
